<?xml version="1.0" encoding="UTF-8"?>
<svg width="50px" height="50px" viewBox="0 0 50 50" version="1.1" xmlns="http://www.w3.org/2000/svg" xmlns:xlink="http://www.w3.org/1999/xlink">
    <!-- Generator: Sketch 46.1 (44463) - http://www.bohemiancoding.com/sketch -->
    <title>v2-logo-50x50-bright</title>
    <desc>Created with Sketch.</desc>
    <defs></defs>
    <g id="version-2" stroke="none" stroke-width="1" fill="none" fill-rule="evenodd">
        <g id="v2-logo-50x50-bright" fill="#FFFFFF">
            <g id="Group" transform="translate(2.000000, 1.000000)">
                <g id="Group-2">
                    <g id="Page-1">
                        <path d="M23.256167,35.1340206 C18.4349299,35.1340206 14.512334,30.9984329 14.512334,26.2268041 L15.3448807,26.2268041 C15.3448807,30.5441565 18.894278,33.3339144 23.256167,33.3339144 C27.6184047,33.3339144 31.1671045,30.5441565 31.1671045,26.2268041 L32,26.2268041 C32,30.9984329 28.0777529,35.1340206 23.256167,35.1340206 Z" id="Fill-14"></path>
                        <polygon id="Fill-15" points="22.5 34.1443299 24 34.1443299 24 15.8350515 22.5 15.8350515"></polygon>
                        <polygon id="Fill-16" points="19.5 19.7938144 27 19.7938144 27 18.3092784 19.5 18.3092784"></polygon>
                        <path d="M16.3239888,27.7113402 L14.9995995,26.3869171 L13.6760112,27.7113402 L13,27.0345019 L14.6619944,25.3714592 C14.8414097,25.1923315 15.1585903,25.1923315 15.3380056,25.3714592 L17,27.0345019 L16.3239888,27.7113402 Z" id="Fill-17"></path>
                        <path d="M32.8235883,27.7113402 L31.5,26.3869171 L30.1760112,27.7113402 L29.5,27.0345019 L31.1619944,25.3714592 C31.3414097,25.1923315 31.6585903,25.1923315 31.8380056,25.3714592 L33.5,27.0345019 L32.8235883,27.7113402 Z" id="Fill-18"></path>
                        <path d="M23.2497566,12.8659794 C22.5598832,12.8659794 22,13.4208381 22,14.1033336 C22,14.7853475 22.5598832,15.3402062 23.2497566,15.3402062 C23.9391431,15.3402062 24.5,14.7853475 24.5,14.1033336 C24.5,13.4208381 23.9391431,12.8659794 23.2497566,12.8659794 Z M23.2502271,16.3298969 C22.0095368,16.3298969 21,15.3301715 21,14.1030928 C21,12.8751154 22.0095368,11.8762887 23.2502271,11.8762887 C24.4909173,11.8762887 25.5,12.8751154 25.5,14.1030928 C25.5,15.3301715 24.4909173,16.3298969 23.2502271,16.3298969 Z" id="Fill-19"></path>
                        <path d="M1.30919721,41.1175834 C1.51866427,43.8374396 10.4822352,46.7109487 23.7498313,46.7109487 C37.0170902,46.7109487 45.981673,43.8374396 46.1904655,41.1175834 L23.7498313,1.68831612 L1.30919721,41.1175834 Z M23.7498313,47.5051546 C12.3212278,47.5051546 0.5,45.0796336 0.5,41.0204694 C0.5,40.9522901 0.517539915,40.8854411 0.551607826,40.8265741 L23.3986957,0.682920521 C23.5410389,0.432153641 23.9589611,0.432153641 24.1009669,0.682920521 L46.9483922,40.8265741 C46.9821228,40.8854411 47,40.9522901 47,41.0204694 C47,45.0796336 35.1784349,47.5051546 23.7498313,47.5051546 Z" id="Fill-20"></path>
                        <path d="M1.31054644,33.7298246 C1.55846638,36.4376038 10.5115808,39.2906736 23.7498313,39.2906736 C36.9884192,39.2906736 45.9411963,36.4376038 46.188779,33.7298246 L23.7498313,1.58046147 L1.31054644,33.7298246 Z M23.7498313,40.0824742 C12.3212278,40.0824742 0.5,37.663286 0.5,33.6143882 C0.5,33.5344452 0.524623342,33.4561607 0.570496964,33.3901497 L23.4179222,0.656307019 C23.5680234,0.441024808 23.9316393,0.441024808 24.0817405,0.656307019 L46.9288284,33.3901497 C46.9753767,33.4561607 47,33.5344452 47,33.6143882 C47,37.663286 35.1784349,40.0824742 23.7498313,40.0824742 Z" id="Fill-21"></path>
                        <path d="M23.5,0 C23.2362525,0 22.9899318,0.129195588 22.8401286,0.346190761 L0.140419554,33.2900641 C0.0492641396,33.4225981 0,33.5798361 0,33.7407464 C0,34.8834764 0.762086079,35.9303946 2.26715581,36.8584663 L0.102549842,40.7019516 C0.0351886712,40.821132 0,40.9550013 0,41.092209 C0,43.1466526 2.50375774,44.907318 7.24015288,46.182582 C11.5934942,47.3543559 17.3681227,48 23.5,48 C29.6318773,48 35.4071761,47.3543559 39.7601823,46.182582 C44.4965774,44.907318 47,43.1466526 47,41.092209 C47,40.9550013 46.9644762,40.821132 46.8977853,40.7019516 L44.7321739,36.8584663 C46.2382491,35.9303946 47,34.8834764 47,33.7407464 C47,33.5798361 46.9507359,33.4225981 46.8592453,33.2900641 L24.1598714,0.346190761 C24.0104033,0.129195588 23.7637475,0 23.5,0 Z M23.5,0.796873044 L46.1997091,33.7407464 C46.1997091,34.7569515 45.2740795,35.7133995 43.6450116,36.5570099 L46.1997091,41.092209 C46.1997091,44.4669847 36.0368857,47.2027931 23.5,47.2027931 C10.9631143,47.2027931 0.800290922,44.4669847 0.800290922,41.092209 L3.35532358,36.5570099 C1.72625567,35.7133995 0.800290922,34.7569515 0.800290922,33.7407464 L23.5,0.796873044 Z" id="Fill-22"></path>
                        <polygon id="Fill-23" points="9.53041747 18.8041237 14 12.6098767 14 12.371134 1.5 12.371134 3.54923098 15.6534382 1.5 18.8041237"></polygon>
                        <polygon id="Fill-24" points="37.9699258 18.8041237 33.5 12.6098767 33.5 12.371134 46 12.371134 43.950769 15.6534382 46 18.8041237"></polygon>
                    </g>
                </g>
            </g>
        </g>
    </g>
</svg>